<?xml version="1.0" encoding="UTF-8" ?>
<svg version="1.1" width="24" height="24" xmlns="http://www.w3.org/2000/svg" shape-rendering="crispEdges">
<rect x="3" y="0" width="18" height="2" fill="#000000" />
<rect x="2" y="1" width="1" height="3" fill="#000000" />
<rect x="21" y="1" width="1" height="3" fill="#000000" />
<rect x="1" y="2" width="1" height="20" fill="#000000" />
<rect x="3" y="2" width="1" height="1" fill="#000000" />
<rect x="4" y="2" width="16" height="20" fill="#FFFFFF" />
<rect x="20" y="2" width="1" height="1" fill="#000000" />
<rect x="22" y="2" width="1" height="20" fill="#000000" />
<rect x="0" y="3" width="1" height="18" fill="#000000" />
<rect x="3" y="3" width="1" height="18" fill="#FFFFFF" />
<rect x="20" y="3" width="1" height="18" fill="#FFFFFF" />
<rect x="23" y="3" width="1" height="18" fill="#000000" />
<rect x="2" y="4" width="1" height="16" fill="#FFFFFF" />
<rect x="21" y="4" width="1" height="16" fill="#FFFFFF" />
<rect x="2" y="20" width="1" height="3" fill="#000000" />
<rect x="21" y="20" width="1" height="3" fill="#000000" />
<rect x="3" y="21" width="1" height="3" fill="#000000" />
<rect x="20" y="21" width="1" height="3" fill="#000000" />
<rect x="4" y="22" width="16" height="2" fill="#000000" />
</svg>